<svg xmlns="http://www.w3.org/2000/svg" viewBox="0 0 100 100">
  <defs>
    <linearGradient id="bg-gradient" x1="0%" y1="0%" x2="100%" y2="100%">
      <stop offset="0%" style="stop-color:#04031E;stop-opacity:1" />
      <stop offset="100%" style="stop-color:#0a0f1c;stop-opacity:1" />
    </linearGradient>
  </defs>
  <!-- Background -->
  <rect width="100" height="100" rx="18" fill="url(#bg-gradient)"/>

  <!-- Simplified Falcon Icon -->
  <g transform="translate(15, 20) scale(0.065)">
    <path fill="#47B5C4" d="M85.59,93.76c26.9,29.31,80.51,60.83,118.45,76.69,8.43,3.41,30.72,12.25,39.55,17.27-22.89-.8-89.94-30.72-109.42-40.35-18.07-8.83-50.99-26.3-66.25-39.55-7.23-6.42-10.44-10.04-20.08-18.27,1,15.06,6.42,24.29,13.25,34.73,68.06,103.59,174.46,117.45,192.53,133.31-23.09-1.41-71.67-21.48-92.55-30.11-14.25-6.02-28.91-13.05-41.36-20.68-11.64-7.03-30.92-16.86-38.95-24.09,4.42,16.86,28.91,42.36,40.75,56.41,12.85,15.06,33.33,31.32,52.6,43.36,112.63,69.87,261.19,52.6,292.11,95.16,18.07,24.69-26.7,57.62-40.96,70.27-4.02,3.61-9.03,8.03-13.45,11.24-8.03,6.02-22.28,14.25-26.3,22.89,7.03,3.61,30.11-4.02,43.36,0,17.47,5.02,14.66,13.65,21.28,29.51,17.27-2.61,18.27-19.67,46.78-17.27,21.28,1.81,19.67,21.88,34.13,31.92,11.24-11.85,13.65-28.71,32.52-31.92,26.1-4.82,29.71,15.06,48.18,17.27,5.82-40.55,29.31-29.51,63.04-28.11-3.01-10.44-19.88-19.27-29.51-27.1l-31.52-25.9c-6.42-5.82-20.48-21.68-23.29-34.13-4.42-19.88,12.65-26.1,23.49-32.93,17.27-5.82,33.33-10.44,49.79-14.45,16.66-3.81,33.53-7.03,52.8-9.84,32.52-4.82,72.27-13.25,100.98-23.69,38.95-13.45,67.66-30.92,94.56-51.4,13.45-10.44,65.45-62.64,69.26-83.32-9.24,7.83-17.06,12.05-24.09,17.06-30.32,21.68-120.46,59.83-152.38,60.63,62.84-24.09,118.05-55.61,139.93-72.88,18.27-14.45,65.65-61.43,67.05-95.96-19.88,12.25-20.08,25.3-85.32,59.23-18.27,9.64-87.73,39.35-110.22,41.16,17.87-7.63,31.92-14.66,43.36-19.88,14.66-6.83,26.1-12.85,39.95-20.08,16.66-8.83,31.32-18.07,44.17-27.71s24.29-20.08,34.93-31.52c14.86-15.86,47.38-57.42,47.18-89.14-6.42,8.83-15.06,18.67-20.68,24.09-20.08,20.08-32.12,26.1-57.82,41.56-15.06,9.03-31.12,16.86-48.58,24.29-8.43,3.81-16.26,6.83-25.3,10.24-5.02,1.81-8.63,3.21-13.45,5.02-2.21.8-4.62,1.61-6.63,2.41-5.02,2.21-93.76,34.73-102.99,28.91-1-.6,13.45-13.65,13.25-13.85-17.27,2.41-140.94,32.93-172.46,122.67-12.65,35.94-5.82,60.23-12.65,96.17-2.41,9.44-5.02,15.86-8.83,21.08-3.61,5.22-8.23,9.64-13.85,14.86-9.24,8.43-15.06,28.91-24.89,35.74-10.24-5.42-12.65-23.29-26.3-36.14-7.03-6.63-9.44-7.03-13.85-17.27-26.3-60.83,6.42-63.44-28.91-127.28-16.26-29.31-32.93-50.59-59.23-68.06-14.66-9.84-81.51-38.55-102.99-39.75,0,0,9.84,13.85,9.84,14.25-48.79-6.02-177.47-58.02-221.44-90.34-32.32-23.49-25.9-17.47-44.77-39.15-2.21-2.41-6.02-9.84-7.03-11.04-2.81,22.89,17.87,55.21,27.5,68.26,6.42,8.83,15.26,18.67,22.08,26.1v-.8h0l-.4.2Z"/>
  </g>
</svg>
