<svg width="643" height="528" viewBox="0 0 643 528" fill="none" xmlns="http://www.w3.org/2000/svg">
<path fill-rule="evenodd" clip-rule="evenodd" d="M575.001 165.6C572.601 197.733 567.668 224.933 558.334 258.667C552.334 280.667 537.134 316.667 524.734 338.533C485.134 408.667 429.668 464.133 349.801 513.867C342.601 518.4 334.334 523.333 331.534 524.8L326.467 527.333L311.134 518C308.912 516.66 306.827 515.404 304.865 514.222L304.773 514.167L304.763 514.161C287.976 504.05 280.247 499.395 273.196 493.873C269.506 490.984 266.003 487.857 261.484 483.588L300.329 461.88C302.3 463.235 304.431 464.694 306.734 466.267C316.334 472.667 325.267 478 326.734 478C329.801 478 354.867 461.733 372.867 448.133C410.525 419.499 432.705 392.446 463.28 355.152L463.28 355.152L463.284 355.147L463.304 355.122C466.606 351.095 470.006 346.948 473.534 342.667C519.744 286.589 571.732 196.196 571.732 196.196C571.732 196.196 519.675 267.075 475.505 309.696C417.619 365.552 362.15 402.271 307.098 427.927L277.301 400.229C331.404 380.573 375.015 345.627 447.667 284.934C491.667 248.133 534.467 204.8 564.867 166.267C570.201 159.6 574.867 154 575.267 154C575.534 154 575.534 159.2 575.001 165.6Z" fill="#04031E"/>
<path fill-rule="evenodd" clip-rule="evenodd" d="M372.996 0.970701C431.663 4.03735 481.129 11.2371 526.996 23.6374C543.748 28.1128 545.047 28.5412 556.182 32.2154L556.184 32.2161L557.663 32.7039L569.529 36.5706L571.129 44.4373C572.729 52.304 574.863 69.3708 576.729 90.1707C577.263 96.4373 578.329 101.637 578.996 101.904C581.529 102.704 624.729 48.304 636.596 29.5041C640.196 23.9041 642.329 22.1707 642.329 24.8372C642.329 26.4373 630.996 48.0374 621.129 64.9705C606.196 90.9705 572.863 137.904 558.196 153.504C556.062 155.771 551.796 160.704 548.729 164.571C545.529 168.304 532.863 181.504 520.329 193.904C492.729 221.371 475.262 237.104 441.663 264.837C435.396 270.037 414.596 286.037 409.129 290.037C398.463 297.637 359.796 323.637 355.263 326.171C352.996 327.504 345.663 331.771 338.996 335.637C328.729 341.637 294.063 358.97 285.663 362.304C284.879 362.589 283.526 363.178 281.988 363.848L281.985 363.849L281.949 363.865C281.513 364.054 281.063 364.251 280.607 364.448C279.669 364.853 278.707 365.264 277.796 365.637C274.996 366.837 271.129 368.437 269.129 368.97C268.684 369.13 268.048 369.35 267.279 369.616C264.826 370.465 261.012 371.784 257.663 373.104C253.263 374.704 247.663 376.571 245.396 377.104C242.996 377.771 238.729 378.97 236.063 379.771C209.929 387.104 186.729 390.304 158.596 390.304C134.596 390.304 125.796 389.371 106.329 384.704C72.1958 376.437 40.7293 359.371 18.3292 336.97C9.39589 328.037 2.86257 320.571 0.995868 316.97C-0.470807 314.304 -0.337506 314.037 1.52919 314.704C2.72927 315.238 7.12917 317.904 11.3959 320.704C37.9657 338.724 78.1601 349.997 116.49 350.298L116.496 350.5C116.496 350.5 143.731 351.695 160.496 349.5C169.758 348.288 182.525 345.743 190.811 344.001C191.532 343.859 192.316 343.698 193.171 343.522L193.172 343.522L193.172 343.522L193.172 343.522L193.262 343.504C195.451 343.051 198.494 342.47 201.449 341.906L201.463 341.904L201.549 341.887L201.716 341.855C203.887 341.44 205.995 341.038 207.662 340.704C211.662 340.037 216.463 338.837 218.329 338.304L219.219 338.049L220.366 337.719C222.453 337.118 225.265 336.309 227.662 335.637C238.996 332.437 244.463 330.571 260.329 324.171C274.729 318.437 303.529 304.437 315.663 297.371C339.396 283.504 345.129 279.904 360.729 269.104C384.063 252.97 409.529 233.637 423.663 221.504C425.529 219.904 432.063 214.304 438.329 208.97C468.996 182.837 498.596 154.037 520.463 128.437L532.996 113.904L532.863 106.437C532.863 102.304 532.062 92.7039 531.262 85.1038C529.796 72.304 529.396 71.2371 526.329 70.0374C521.929 68.304 494.196 61.2371 484.996 59.5041C480.996 58.7039 474.729 57.5041 470.996 56.8372C441.529 51.1038 416.596 48.304 372.329 45.6374C337.796 43.5041 316.596 43.3708 286.329 45.1038C263.262 46.4373 237.262 48.7039 224.329 50.4373C188.196 55.3708 178.729 57.1038 150.329 63.904C129.396 68.9705 125.262 70.304 124.329 72.8372C120.863 81.7708 120.463 161.238 123.796 182.304C127.262 204.837 127.929 208.704 129.262 214.97C133.129 234.437 140.863 259.771 148.463 279.104C151.411 286.589 162.365 308.83 168.609 320.563L120.673 326.106C116.217 317.342 111.662 307.816 111.662 306.97C111.662 306.571 110.463 303.371 108.863 299.904C104.329 289.771 99.6626 277.504 97.1292 268.97C96.8184 267.986 96.4069 266.66 95.9573 265.211L95.9257 265.108L95.9246 265.104L95.9211 265.093L95.9206 265.091C95.2221 262.839 94.4368 260.307 93.7959 258.304C84.3292 227.637 77.7959 185.904 76.4625 146.97C75.2626 114.837 79.7959 50.304 83.7959 39.6374C84.8626 36.8372 87.3959 35.6375 99.3959 31.7708C103.622 30.4812 107.848 29.1536 111.145 28.1174L111.503 28.0052L111.504 28.0048L111.507 28.0039L111.508 28.0035C113.322 27.4337 114.831 26.9597 115.869 26.6414C116.352 26.4934 116.733 26.3787 116.996 26.304C128.729 22.4373 169.262 13.6374 190.329 10.304C195.796 9.50415 203.663 8.30395 207.663 7.63745C224.996 4.83716 267.796 0.970701 285.663 0.570554C317.129 -0.362796 350.596 -0.0959499 372.996 0.970701Z" fill="#47B5C4"/>
<path d="M237 466.5L191 424.5L240 411L277.5 445.5L237 466.5Z" fill="#04031E"/>
</svg>
